<?xml version="1.0" encoding="utf-8"?>
<!-- Generator: Adobe Illustrator 25.2.0, SVG Export Plug-In . SVG Version: 6.00 Build 0)  -->
<svg version="1.1" id="Layer_1" xmlns="http://www.w3.org/2000/svg" xmlns:xlink="http://www.w3.org/1999/xlink" x="0px" y="0px"
	 viewBox="0 0 999.3 326.3" style="enable-background:new 0 0 999.3 326.3;" xml:space="preserve">
<style type="text/css">
	.st0{fill:#231F20;}
	.st1{font-family:'Montserrat-Bold';}
	.st2{font-size:79.0754px;}
	.st3{fill:#EC250E;}
	.st4{fill:#FF4F0D;}
	.st5{fill:#F79625;}
	.st6{fill:url(#SVGID_1_);}
	.st7{fill:url(#SVGID_2_);}
</style>
<text transform="matrix(1 0 0 1 328.6226 159.1953)" class="st0 st1 st2">ADDICTED SOUL </text>
<text transform="matrix(1 0 0 1 328.6226 254.0712)" class="st0 st1 st2">WINNERS</text>
<g>
	<path class="st3" d="M226.6,62c-1.2,7.7-3.9,15.8-7.7,23.9c-0.4,0.4-0.4,0.8-0.4,1.2c-10.8,20.5-28.2,32.4-30.5,34
		c-15.1,10-33.6,15.4-42.5,18.1c-2.7,0.8-5,1.5-7.3,1.9c-6.6,1.9-12.7,3.5-21.6,7.3c-6.6,3.1-14.3,6.2-22.8,12.7
		c-8.5,6.6-19.3,15.1-23.6,29.7c-2.3,7.3-2.3,14.3-1.2,20.5c-6.2-8.5-12.7-21.2-13.1-37.1c0-20.9,11.2-35.5,16.6-42.5
		c12-15.4,25.9-22.4,49.4-34c10-5,17-7.7,22.8-10c7.7-3.1,14.3-5.4,25.5-12.4c5.4-3.1,10-6.2,14.3-9.3c7-4.6,12.7-10,18.5-17
		c0.4-0.4,0.4-0.8,0.8-1.2c10.4-13.9,14.7-29.3,16.2-42.5C225.1,18.3,230.5,39.6,226.6,62z"/>
</g>
<path class="st4" d="M192.7,137.3c-23.2,8.5-39.4,14.7-54.4,20.1c-9.3,3.5-16.6,6.2-25.5,12c-8.9,5.8-20.5,13.5-26.6,28.2
	c-1.5,3.1-11.2,26.3,1.5,44.4c7.3,10,17.8,13.5,22.4,14.7c-2.3-7.7-5.4-20.9-2.3-35.9c1.5-7.7,5.8-19.3,23.2-37.8
	C142.8,170.1,162.5,152.3,192.7,137.3z"/>
<path class="st5" d="M167.2,256.6L167.2,256.6c-0.8,22-19.7,34.8-23.2,36.7c0-0.4-0.4-0.4-0.4-0.8c0-0.4,0-0.8,0-1.2
	c0.8-7-1.5-13.9-5-20.5c-1.9-4.2-4.2-8.5-6.2-12.7c-0.8-1.9-1.9-4.2-2.3-6.2c-1.5-5.4-5.8-22.8,2.3-42.1
	c5.8-13.5,14.7-21.6,19.3-25.1c-1.5,2.3-8.1,15.8-3.5,31.3c1.9,6.2,5.4,10.8,8.1,13.9c5,5.8,8.9,12.7,10,20.1
	C167.2,252.7,167.2,254.7,167.2,256.6z"/>
<linearGradient id="SVGID_1_" gradientUnits="userSpaceOnUse" x1="142.2572" y1="-12.3653" x2="142.2572" y2="266.8238" gradientTransform="matrix(1 0 0 -1 0 300.2128)">
	<stop  offset="0" style="stop-color:#FBEAA1"/>
	<stop  offset="0.1802" style="stop-color:#C08430"/>
	<stop  offset="0.3063" style="stop-color:#FBEAA1"/>
	<stop  offset="0.5171" style="stop-color:#825A2F"/>
	<stop  offset="0.627" style="stop-color:#FBEAA1"/>
	<stop  offset="0.7964" style="stop-color:#C08430"/>
	<stop  offset="0.8937" style="stop-color:#FBEAA1"/>
	<stop  offset="1" style="stop-color:#825A2F"/>
</linearGradient>
<path class="st6" d="M142.1,33.4C64.8,33.4,2.3,95.9,2.3,173.2c0,74.5,58.3,135.5,132.1,139.4c1.5-8.1-0.4-16.6-3.5-24.7
	C72.6,282.1,27,233,27,173.2c0-63.7,51.7-115.1,115.1-115.1c12.4,0,24.3,1.9,35.5,5.4c7.7-5.4,14.7-10.4,20.9-18.1
	C181.1,37.6,162.1,33.4,142.1,33.4z M232.4,66.2c-1.5,7.3-3.9,14.7-7.7,22c-0.4,0.8-0.8,1.9-1.5,2.7c21.2,20.9,34.4,49.8,34.4,81.9
	c0,34.8-15.1,65.6-39.4,86.9c2.3-0.4,5-0.4,7.7-0.4c8.1,0,16.2,0.8,23.9,2.7c20.1-24.3,32.4-55.2,32.4-89.2
	C281.9,130.3,262.5,92.1,232.4,66.2z"/>
<linearGradient id="SVGID_2_" gradientUnits="userSpaceOnUse" x1="193.0364" y1="-24.9153" x2="193.0364" y2="35.8708" gradientTransform="matrix(1 0 0 -1 0 300.2128)">
	<stop  offset="0" style="stop-color:#FBEAA1"/>
	<stop  offset="0.1802" style="stop-color:#C08430"/>
	<stop  offset="0.3063" style="stop-color:#FBEAA1"/>
	<stop  offset="0.5171" style="stop-color:#825A2F"/>
	<stop  offset="0.627" style="stop-color:#FBEAA1"/>
	<stop  offset="0.7964" style="stop-color:#C08430"/>
	<stop  offset="0.8937" style="stop-color:#FBEAA1"/>
	<stop  offset="1" style="stop-color:#825A2F"/>
</linearGradient>
<path class="st7" d="M247.9,265.1c-38.2,4.2-71.1,27.4-88,60.2c-7-2.3-14.3-3.5-21.6-4.2c19.3-33.6,56-56.4,97.7-56.4
	C239.8,264.3,243.6,264.7,247.9,265.1z"/>
</svg>
