<svg width="150" height="172" viewBox="0 0 150 172" fill="none" xmlns="http://www.w3.org/2000/svg">
<path d="M120.208 30.2069C119.587 34.3448 118.139 38.6897 116.07 43.0345C115.863 43.2414 115.863 43.4483 115.863 43.6552C110.07 54.6207 100.76 61.0345 99.5184 61.8621C91.4494 67.2414 81.5184 70.1379 76.7598 71.5862C75.3115 72 74.0701 72.4138 72.8287 72.6207C69.3115 73.6552 66.0011 74.4828 61.2425 76.5517C57.7253 78.2069 53.5874 79.8621 49.0356 83.3793C44.4839 86.8966 38.6908 91.4483 36.4149 99.3104C35.1736 103.241 35.1735 106.966 35.7942 110.276C32.4839 105.724 28.9667 98.8966 28.7598 90.4138C28.7598 79.2414 34.7598 71.3793 37.6563 67.6552C44.0701 59.3793 51.5184 55.6552 64.1391 49.4483C69.5184 46.7586 73.2425 45.3104 76.346 44.069C80.4839 42.4138 84.0011 41.1724 90.0011 37.4483C92.8977 35.7931 95.3805 34.1379 97.6563 32.4828C101.38 30 104.484 27.1035 107.587 23.3793C107.794 23.1724 107.794 22.9655 108.001 22.7586C113.587 15.3103 115.863 7.03448 116.691 0C119.38 6.82759 122.277 18.2069 120.208 30.2069Z" fill="#EC250E"/>
<path d="M102.001 70.5518C89.5868 75.1035 80.8971 78.4138 72.8282 81.3104C67.8626 83.1725 63.9316 84.6207 59.173 87.7242C54.4144 90.8276 48.2075 94.9656 44.8971 102.828C44.0695 104.483 38.8971 116.897 45.7247 126.621C49.6557 132 55.2419 133.862 57.7247 134.483C56.4833 130.345 54.8281 123.31 56.4833 115.241C57.3109 111.103 59.5868 104.897 68.8971 94.9656C75.3109 88.138 85.8626 78.6207 102.001 70.5518Z" fill="#FF4F0D"/>
<path d="M88.3441 134.483C87.9303 146.276 77.7924 153.103 75.9303 154.138C75.9303 153.931 75.7234 153.931 75.7234 153.724C75.7234 153.517 75.7234 153.31 75.7234 153.103C76.1372 149.379 74.8958 145.655 73.0337 142.138C71.9992 139.862 70.7579 137.586 69.7234 135.31C69.3096 134.276 68.6889 133.034 68.482 132C67.6544 129.103 65.3785 119.793 69.7234 109.448C72.8268 102.207 77.5855 97.8621 80.0682 96C79.2406 97.2414 75.7234 104.483 78.2061 112.759C79.2406 116.069 81.1027 118.552 82.551 120.207C85.2407 123.31 87.3096 127.034 87.9303 130.966C88.3441 132.414 88.3441 133.448 88.3441 134.483Z" fill="#F79625"/>
<path d="M74.8966 14.8966C33.5173 14.8966 0 48.4138 0 89.7932C0 129.724 31.2414 162.414 70.7586 164.483C71.5862 160.138 70.5517 155.586 68.8965 151.241C37.6552 148.138 13.2414 121.862 13.2414 89.7932C13.2414 55.6552 40.9655 28.138 74.8966 28.138C81.5173 28.138 87.931 29.1725 93.931 31.0345C98.069 28.138 101.793 25.4483 105.103 21.3104C95.7931 17.1725 85.6552 14.8966 74.8966 14.8966ZM123.31 32.4828C122.483 36.4139 121.241 40.3449 119.172 44.2759C118.966 44.6897 118.759 45.3104 118.345 45.7242C129.724 56.8966 136.759 72.4138 136.759 89.5863C136.759 108.207 128.69 124.759 115.655 136.138C116.897 135.931 118.345 135.931 119.793 135.931C124.138 135.931 128.483 136.345 132.621 137.379C143.379 124.345 150 107.793 150 89.5863C149.793 66.8276 139.448 46.3449 123.31 32.4828Z" fill="url(#paint0_linear_872_12)"/>
<path d="M131.587 139.035C111.104 141.31 93.5178 153.724 84.4143 171.31C80.6902 170.069 76.7592 169.448 72.8281 169.035C83.173 151.035 102.828 138.828 125.173 138.828C127.242 138.621 129.311 138.828 131.587 139.035Z" fill="url(#paint1_linear_872_12)"/>
<defs>
<linearGradient id="paint0_linear_872_12" x1="74.9483" y1="164.462" x2="74.9483" y2="14.8966" gradientUnits="userSpaceOnUse">
<stop stop-color="#FBEAA1"/>
<stop offset="0.1802" stop-color="#C08430"/>
<stop offset="0.3063" stop-color="#FBEAA1"/>
<stop offset="0.5171" stop-color="#825A2F"/>
<stop offset="0.627" stop-color="#FBEAA1"/>
<stop offset="0.7964" stop-color="#C08430"/>
<stop offset="0.8937" stop-color="#FBEAA1"/>
<stop offset="1" stop-color="#825A2F"/>
</linearGradient>
<linearGradient id="paint1_linear_872_12" x1="102.135" y1="171.207" x2="102.135" y2="138.618" gradientUnits="userSpaceOnUse">
<stop stop-color="#FBEAA1"/>
<stop offset="0.1802" stop-color="#C08430"/>
<stop offset="0.3063" stop-color="#FBEAA1"/>
<stop offset="0.5171" stop-color="#825A2F"/>
<stop offset="0.627" stop-color="#FBEAA1"/>
<stop offset="0.7964" stop-color="#C08430"/>
<stop offset="0.8937" stop-color="#FBEAA1"/>
<stop offset="1" stop-color="#825A2F"/>
</linearGradient>
</defs>
</svg>
